<svg id="Layer_1" data-name="Layer 1" xmlns="http://www.w3.org/2000/svg" xmlns:xlink="http://www.w3.org/1999/xlink" viewBox="0 0 1080 1080"><defs><style>.cls-1{fill:url(#linear-gradient);}.cls-2{fill:url(#linear-gradient-2);}.cls-3{fill:url(#linear-gradient-3);}</style><linearGradient id="linear-gradient" x1="285.48" y1="-5213.9" x2="817.34" y2="-5213.9" gradientTransform="matrix(1, 0, 0, -1, 0, -4742.35)" gradientUnits="userSpaceOnUse"><stop offset="0" stop-color="#003249"/><stop offset="1" stop-color="#001627"/></linearGradient><linearGradient id="linear-gradient-2" x1="274.07" y1="-5282.35" x2="805.93" y2="-5282.35" gradientTransform="matrix(1, 0, 0, -1, 0, -4742.35)" gradientUnits="userSpaceOnUse"><stop offset="0" stop-color="#f0c985"/><stop offset="1" stop-color="#987146"/></linearGradient><linearGradient id="linear-gradient-3" x1="262.66" y1="-5350.79" x2="794.52" y2="-5350.79" xlink:href="#linear-gradient"/></defs><path class="cls-1" d="M803.24,434.46,585.44,197c-18.79-20.49-49.27-20.49-68.06,0L299.57,434.46c-18.79,20.49-18.79,53.7,0,74.18L517.38,746.07c18.79,20.49,49.27,20.49,68.06,0l217.8-237.43C822,488.16,822,455,803.24,434.46Z"/><path class="cls-2" d="M791.83,502.91,574,265.48C555.24,245,524.76,245,506,265.48L288.17,502.91c-18.8,20.48-18.8,53.7,0,74.18L506,814.52c18.79,20.49,49.27,20.49,68.06,0l217.8-237.43C810.63,556.61,810.63,523.39,791.83,502.91Z"/><path class="cls-3" d="M780.43,571.36,562.62,333.93c-18.79-20.49-49.27-20.49-68.06,0L276.76,571.36c-18.79,20.48-18.79,53.69,0,74.18L494.56,883c18.79,20.49,49.27,20.49,68.06,0L780.43,645.54C799.22,625.05,799.22,591.84,780.43,571.36Z"/></svg>