<svg id="Layer_1" data-name="Layer 1" xmlns="http://www.w3.org/2000/svg" xmlns:xlink="http://www.w3.org/1999/xlink" viewBox="0 0 1080 1080"><defs><style>.cls-1{mask:url(#mask);filter:url(#luminosity-noclip-2);}.cls-2{mix-blend-mode:multiply;fill:url(#linear-gradient);}.cls-3{mask:url(#mask-2);}.cls-4{fill:url(#linear-gradient-2);}.cls-5{fill:#193749;opacity:0.05;}.cls-6{filter:url(#luminosity-noclip);}</style><filter id="luminosity-noclip" x="172.93" y="-5606.05" width="843.18" height="32766" filterUnits="userSpaceOnUse" color-interpolation-filters="sRGB"><feFlood flood-color="#fff" result="bg"/><feBlend in="SourceGraphic" in2="bg"/></filter><mask id="mask" x="172.93" y="-5606.05" width="843.18" height="32766" maskUnits="userSpaceOnUse"><g class="cls-6"/></mask><linearGradient id="linear-gradient" x1="1033.73" y1="574.65" x2="736.78" y2="533.65" gradientUnits="userSpaceOnUse"><stop offset="0" stop-color="#fff"/><stop offset="1"/></linearGradient><filter id="luminosity-noclip-2" x="172.93" y="54.43" width="843.18" height="919.15" filterUnits="userSpaceOnUse" color-interpolation-filters="sRGB"><feFlood flood-color="#fff" result="bg"/><feBlend in="SourceGraphic" in2="bg"/></filter><mask id="mask-2" x="172.93" y="54.43" width="843.18" height="919.15" maskUnits="userSpaceOnUse"><g class="cls-1"><path class="cls-2" d="M993.77,572.81,648.47,949.22c-29.79,32.48-78.11,32.48-107.9,0L195.27,572.81c-29.79-32.48-29.79-85.13,0-117.61L540.57,78.79c29.79-32.48,78.11-32.48,107.9,0L993.77,455.2C1023.56,487.68,1023.56,540.33,993.77,572.81Z"/></g></mask><linearGradient id="linear-gradient-2" x1="1033.73" y1="574.65" x2="736.78" y2="533.65" gradientUnits="userSpaceOnUse"><stop offset="0" stop-color="#f7f7f8"/><stop offset="1" stop-color="#ecebec"/></linearGradient></defs><g class="cls-3"><path class="cls-4" d="M993.77,572.81,648.47,949.22c-29.79,32.48-78.11,32.48-107.9,0L195.27,572.81c-29.79-32.48-29.79-85.13,0-117.61L540.57,78.79c29.79-32.48,78.11-32.48,107.9,0L993.77,455.2C1023.56,487.68,1023.56,540.33,993.77,572.81Z"/></g><path class="cls-5" d="M884.73,624.8l-345.3,376.41c-29.79,32.48-78.11,32.48-107.9,0L86.23,624.8c-29.79-32.48-29.79-85.13,0-117.61l345.3-376.41c29.79-32.48,78.11-32.48,107.9,0l345.3,376.41C914.52,539.67,914.52,592.32,884.73,624.8Z"/></svg>