<?xml version="1.0" encoding="UTF-8"?>
<svg id="b" data-name="Layer 2" xmlns="http://www.w3.org/2000/svg" xmlns:xlink="http://www.w3.org/1999/xlink" viewBox="0 0 310.08 76.89">
  <defs>
    <style>
      .h {
        fill: url(#e);
      }

      .h, .i, .j, .k {
        stroke-width: 0px;
      }

      .i {
        fill: url(#g);
      }

      .j {
        fill: url(#d);
      }

      .k {
        fill: url(#f);
      }
    </style>
    <linearGradient id="d" x1="92.29" y1="732.73" x2="299.31" y2="924.15" gradientTransform="translate(0 855.84) scale(1 -1)" gradientUnits="userSpaceOnUse">
      <stop offset="0" stop-color="#003249"/>
      <stop offset="1" stop-color="#001627"/>
    </linearGradient>
    <linearGradient id="e" x1="92.4" y1="714.49" x2="296.24" y2="902.97" gradientTransform="translate(0 855.84) scale(1 -1)" gradientUnits="userSpaceOnUse">
      <stop offset=".23" stop-color="#8e6d48"/>
      <stop offset=".65" stop-color="#ebc281"/>
    </linearGradient>
    <linearGradient id="f" x1="3.16" y1="790.25" x2="44.89" y2="831.98" gradientTransform="translate(0 855.84) scale(1 -1)" gradientUnits="userSpaceOnUse">
      <stop offset="0" stop-color="#8e6d48"/>
      <stop offset="1" stop-color="#ebc281"/>
    </linearGradient>
    <linearGradient id="g" x1="1.22" y1="797.81" x2="46.77" y2="843.35" xlink:href="#d"/>
  </defs>
  <g id="c" data-name="Layer 1">
    <path class="j" d="m70.94,40.09c-.64,0-1.28-.07-1.9-.24-.64-.19-1.26-.49-1.81-.87l1.21-1.91c.29.19.61.34.94.45.33.09.66.14,1,.13.5.02.99-.21,1.3-.6.34-.43.51-.97.49-1.52v-9.91h3v10.06c.06,1.18-.35,2.33-1.14,3.21-.81.82-1.94,1.26-3.09,1.2Zm12.46-7.09c.07,0,.1,0,.1.07v2.19c0,.07,0,.1-.1.1h-5.52v-14.95h3v12.59h2.52Zm2.08,0c-.37-.86-.55-1.78-.54-2.71.01-.63.11-1.25.29-1.85.17-.59.42-1.17.73-1.7.66-.36,1.35-.64,2.08-.83.63-.18,1.27-.27,1.92-.29.87-.01,1.73.19,2.51.58.73.36,1.33.92,1.75,1.62.42.75.64,1.59.62,2.45,0,.68-.13,1.36-.38,2,.23.24.52.43.84.54.38.11.77.17,1.17.16h.11c.07,0,.1,0,.1.07v2.19c0,.07,0,.1-.1.1h-.11c-.63.01-1.25-.09-1.84-.29-.57-.22-1.07-.56-1.49-1-.52.45-1.11.79-1.76,1-.66.22-1.35.33-2.05.33h-6.12c-.07,0-.1,0-.1-.1v-2.19c0-.05,0-.07.1-.07h2.27Zm2.25-2.3c.02.79.18,1.57.46,2.3h.76c.75,0,1.46-.28,2-.8.53-.5.83-1.2.82-1.93.03-.6-.15-1.19-.52-1.67-.34-.41-.86-.64-1.39-.62-.66.02-1.31.21-1.88.55-.18.71-.26,1.44-.25,2.17h0Zm8.64,4.66c-.06,0-.09,0-.09-.1v-2.19c0-.05,0-.07.09-.07h3.11c-.51-.23-.93-.62-1.2-1.11-.29-.53-.45-1.12-.44-1.73-.06-1.32.49-2.6,1.49-3.47,1.17-.9,2.62-1.34,4.09-1.26.62,0,1.24.07,1.85.19.53.09,1.04.24,1.53.45l-.84,2.31c-.45-.2-.91-.35-1.39-.46-.41-.09-.82-.13-1.24-.13-.7-.04-1.39.19-1.92.64-.48.49-.73,1.17-.68,1.86-.03.72.22,1.42.7,1.95.49.51,1.17.79,1.88.76h3.69v2.36h-10.63Zm11.46-2.36h3.66l-2.6-9.94h3.14l2.4,9.94h.14c.55.05,1.09-.15,1.47-.55.36-.5.53-1.12.47-1.73v-10.31h3v10.51c.06,1.18-.35,2.33-1.14,3.21-.83.83-1.97,1.26-3.14,1.2h-7.4v-2.33Zm2.83,7.16l1.15-.18c-.26-.12-.48-.3-.66-.53-.17-.23-.26-.51-.25-.8-.02-.51.2-1,.6-1.31.47-.34,1.04-.51,1.62-.48.57-.02,1.14.1,1.66.35l-.41,1c-.34-.16-.71-.25-1.09-.26-.26,0-.51.09-.7.26-.18.18-.28.43-.26.69.01.39.24.73.6.89l.36-.06c.66-.1,1.2-.17,1.64-.2v1.14c-.48,0-1.28.11-2.38.24s-1.73.21-1.88.25v-1Zm11.68-19.75h3v14.95h-3v-14.95Zm9.62,19.68c-.8.01-1.59-.06-2.37-.21-.68-.14-1.33-.4-1.93-.75l1.17-2.14c.49.26,1.01.45,1.55.58.5.12,1.01.17,1.52.17.65.04,1.28-.18,1.76-.61.43-.45.65-1.05.62-1.67v-.1h-2c-1.22.08-2.42-.35-3.32-1.19-.82-.93-1.24-2.15-1.16-3.39-.02-.97.26-1.92.8-2.73.56-.81,1.34-1.44,2.25-1.81,1.07-.43,2.22-.64,3.37-.62h3.07v9.8c.08,1.33-.46,2.62-1.46,3.5-1.12.85-2.5,1.26-3.9,1.17h.03Zm2.32-7.09v-5h-.65c-.73-.04-1.46.22-2,.71-.51.54-.77,1.26-.73,2-.05.62.13,1.24.5,1.74.39.4.94.6,1.5.56h1.38Zm15.94,0c.06,0,.09,0,.09.07v2.19c0,.07,0,.1-.09.1h-2.62v.32c.06,1.18-.35,2.34-1.15,3.21-.81.82-1.92,1.25-3.07,1.2-.64,0-1.28-.07-1.9-.24-.64-.19-1.26-.49-1.81-.87l1.21-1.91c.29.19.61.34.94.45.33.09.66.14,1,.13.5.02.99-.21,1.3-.6.34-.43.51-.97.49-1.52v-9.91h3v7.38h2.61Zm-.2,2.36c-.07,0-.1,0-.1-.1v-2.19c0-.05,0-.07.1-.07h3.52v-7.38h3v9.74h-6.52Zm1.62,4.92c-.37.02-.74-.12-1-.38-.25-.27-.38-.63-.37-1,0-.37.12-.72.36-1,.26-.26.63-.4,1-.38.37-.02.74.11,1,.38.23.28.36.64.35,1,.01.37-.12.72-.36,1-.27.26-.63.4-1.01.38h.03Zm3.43,0c-.37.02-.74-.12-1-.38-.25-.27-.38-.63-.37-1,0-.37.12-.72.36-1,.57-.52,1.43-.52,2,0,.23.28.36.64.35,1,.01.37-.12.73-.37,1-.26.26-.63.4-1,.38h.03Zm15.64-7.28c.06,0,.1,0,.1.07v2.19s-.03.09-.08.1c0,0-.01,0-.02,0h-2.52c.07,1.31-.44,2.59-1.4,3.49-1.11.88-2.51,1.33-3.93,1.24-.8.01-1.59-.06-2.37-.21-.68-.14-1.33-.4-1.93-.75l1.17-2.14c.49.26,1.01.45,1.55.58.5.12,1.01.17,1.52.17.65.04,1.28-.18,1.76-.61.43-.45.65-1.05.62-1.67v-.1h-2c-1.22.08-2.42-.35-3.32-1.19-.82-.93-1.24-2.15-1.16-3.39-.02-.97.26-1.92.8-2.73.56-.81,1.34-1.44,2.25-1.81,1.07-.43,2.22-.64,3.37-.62h3.07v7.38h2.52Zm-5.53,0v-5h-.65c-.73-.04-1.46.22-2,.71-.5.54-.77,1.26-.73,2-.05.62.13,1.24.5,1.74.39.4.94.6,1.5.56h1.38Zm5.33,2.36c-.07,0-.1,0-.1-.1v-2.19c0-.05,0-.07.1-.07h2.32v-12.59h3v8.66c.9-2.22,3.07-3.66,5.46-3.64,1.37-.11,2.72.35,3.74,1.27.92,1.09,1.38,2.5,1.26,3.93v2.37h2.63c.06,0,.09,0,.09.07v2.19c0,.07,0,.1-.09.1h-18.41Zm12.84-2.36v-2.42c.23-1.31-.65-2.56-1.96-2.79-.26-.05-.53-.05-.8,0-1.81,0-3.38,1.22-4.69,3.67v1.54h7.45Zm5.43,2.36c-.07,0-.1,0-.1-.1v-2.19c0-.05,0-.07.1-.07h3.05v-7.38h3v7.38h3c.06,0,.1,0,.1.07v2.19s-.03.09-.08.1c0,0-.01,0-.02,0h-9.05Zm2.71-11.44c-.37.02-.73-.12-1-.38-.48-.61-.48-1.46,0-2.07.26-.27.63-.41,1-.38.37-.03.74.1,1,.37.24.28.37.63.36,1,.01.37-.12.73-.37,1-.24.29-.61.46-.99.46Zm3.43,0c-.37.02-.74-.12-1-.38-.24-.28-.37-.63-.36-1-.01-.37.11-.72.35-1,.26-.27.63-.41,1-.38.37-.03.74.11,1,.38.47.61.47,1.46,0,2.07-.27.24-.63.35-.99.31h0Zm2.78,11.43s-.09-.03-.1-.08c0,0,0-.01,0-.02v-2.19c0-.05,0-.07.1-.07h2.52v-12.58h3v12.59h2.61c.06,0,.1,0,.1.07v2.19s-.03.09-.08.1c0,0-.01,0-.02,0h-8.13Zm8,0s-.09-.03-.1-.08c0,0,0-.01,0-.02v-2.19c0-.05,0-.07.1-.07h2.52v-12.58h3v14.95h-5.52Zm15.35.19c-1.34.1-2.68-.31-3.74-1.14-.9-.88-1.37-2.12-1.28-3.38,0-.98.22-1.95.65-2.83.4-.82,1.02-1.51,1.79-2,.79-.49,1.71-.75,2.64-.73.88-.01,1.75.23,2.49.71.78.49,1.41,1.18,1.83,2,.47.88.71,1.86.71,2.85.11,1.28-.36,2.54-1.28,3.43-1.11.82-2.48,1.21-3.86,1.1h.05Zm-2-11.62c-.37.02-.74-.12-1-.38-.49-.6-.49-1.47,0-2.07.57-.52,1.43-.52,2,0,.24.28.36.63.35,1,.01.37-.12.73-.36,1-.25.29-.62.46-1,.45h0Zm1.94,9.23c.58.05,1.15-.15,1.57-.55.38-.48.56-1.08.51-1.68.02-.78-.19-1.54-.61-2.2-.38-.83-1.36-1.19-2.19-.81-.36.16-.65.45-.81.81-.41.67-.62,1.44-.6,2.23-.05.6.13,1.21.51,1.68.44.4,1.02.59,1.61.53h0Zm1.49-9.23c-.37.02-.74-.12-1-.38-.25-.27-.38-.63-.37-1-.01-.37.12-.73.36-1,.57-.52,1.43-.52,2,0,.24.28.36.63.35,1,.01.37-.12.73-.37,1-.26.26-.61.4-.98.38h0Zm4.82,9.07h6.74c-.21-1.02-.54-2.01-1-2.94-.39-.73-.9-1.38-1.52-1.93-.67-.57-1.43-1.03-2.25-1.35l1.14-2.75c1.7.64,3.19,1.75,4.28,3.2,1.2,1.73,2.01,3.7,2.38,5.77h2.65c.07,0,.1,0,.1.07v2.19c0,.07,0,.1-.1.1h-12.43v-2.36Zm12.21,2.36c-.07,0-.1,0-.1-.1v-2.19c0-.05,0-.07.1-.07h2.52v-7.37h3v9.74h-5.52Zm1.46-12.3l1.16-.19c-.26-.12-.48-.3-.65-.53-.18-.23-.27-.51-.26-.8-.02-.51.2-1,.6-1.32.47-.33,1.04-.5,1.62-.47.57-.02,1.14.1,1.65.36l-.4,1c-.34-.17-.72-.25-1.1-.25-.26,0-.51.08-.7.25-.18.18-.28.43-.26.69,0,.19.06.38.18.54.11.15.26.26.43.34l.35-.06c.69-.1,1.23-.17,1.64-.2v1.14l-2.38.24c-1.11.13-1.73.22-1.88.25v-.99Zm6.79-2.65h3v14.95h-3v-14.95Zm13.75,12.59c.07,0,.1,0,.1.07v2.19c0,.07,0,.1-.1.1h-2.62v.32c.07,1.2-.35,2.37-1.16,3.25-.8.82-1.92,1.26-3.06,1.2-.64,0-1.28-.07-1.9-.24-.65-.19-1.26-.49-1.82-.87l1.21-1.91c.29.19.61.34.94.45.33.09.66.13,1,.13.5.02.99-.21,1.3-.6.34-.43.52-.97.5-1.52v-9.94h3v7.38h2.61Zm-.2,2.36s-.09-.03-.1-.08c0,0,0-.01,0-.02v-2.19c0-.05,0-.07.1-.07h2.52v-12.58h3v14.95h-5.52Zm8.52-14.94h3v14.95h-3v-14.95Zm9.4,19.68c-.64,0-1.27-.07-1.89-.24-.65-.19-1.26-.49-1.82-.87l1.21-1.91c.29.19.61.34.94.45.33.09.66.14,1,.13.5.02.99-.21,1.3-.6.34-.43.51-.97.49-1.52v-9.91h3v10.06c.08,1.19-.33,2.36-1.13,3.24-.81.81-1.93,1.24-3.07,1.17h-.03Zm2.6-16.17c-.37.02-.74-.12-1-.38-.49-.6-.49-1.47,0-2.07.26-.26.63-.4,1-.38.37-.03.74.11,1,.37.24.28.37.63.36,1,.01.37-.12.73-.37,1-.24.29-.61.46-.99.46Zm9.91,9.07c.06,0,.1,0,.1.07v2.19s-.03.09-.08.1c0,0-.01,0-.02,0h-5.53v-14.94h3v12.59h2.53Zm-.2,2.36c-.07,0-.1,0-.1-.1v-2.19c0-.05,0-.07.1-.07h7.89v-3.16c.04-.71-.27-1.4-.84-1.83-.7-.46-1.53-.68-2.37-.63h-3.39v-2.14c.72-1.48,1.74-2.8,3-3.87,1.33-1.14,2.86-2.01,4.52-2.57l1.1,2.63c-1.17.33-2.29.84-3.32,1.5-.87.53-1.63,1.23-2.23,2.05h.77c3.84,0,5.75,1.49,5.75,4.45v5.9l-10.88.03Zm14.3,4.73c-.64,0-1.28-.07-1.9-.24-.65-.2-1.26-.49-1.82-.87l1.22-1.91c.29.19.61.34.94.45.33.09.66.14,1,.13.5.01.98-.21,1.3-.6.33-.43.51-.97.49-1.52v-9.9h3v10.06c.06,1.18-.35,2.33-1.14,3.21-.81.82-1.94,1.26-3.1,1.2h0Z"/>
    <path class="h" d="m72.2,51.59c.02.57-.12,1.13-.39,1.62-.28.46-.7.81-1.21,1h0l2,3.75h-1.47l-1.83-3.53h-.84v3.53h-1.23v-9.12h2c.32,0,.63.02.94.08.26.04.51.12.75.23.39.2.71.52.91.91.25.47.38,1,.37,1.53Zm-3.14,1.45c.24,0,.48-.01.72-.05.17-.02.34-.07.49-.15.23-.11.41-.29.52-.52.1-.24.14-.5.14-.76,0-.22-.03-.43-.1-.64-.08-.18-.22-.34-.39-.44-.13-.08-.28-.14-.44-.16-.22-.02-.44-.02-.66,0h-.87v2.79l.59-.07Zm6.25,3.54h3.31v1.39h-4.54v-9.12h4.36v1.4h-3.13v2.36h2.69v1.4h-2.69v2.57Zm5,1.39v-9.12h1.22v4.15h0l2.54-4.15h1.53l-2.8,4.52,3,4.6h-1.58l-2.72-4.12h0v4.12h-1.19Zm10.74-2.32h-2.53l-.66,2.32h-1.31l2.67-9.12h1.12l2.67,9.12h-1.3l-.66-2.32Zm-1.22-4.61c-.23,1-.44,1.76-.62,2.4l-.23.81h1.73l-.23-.81c-.18-.67-.39-1.47-.63-2.4h-.02Zm9.47-2.19v.91l-3.59,6.82h3.64v1.39h-5.32v-.9l3.6-6.82h-3.51v-1.4h5.18Zm7,9.12h-1.23v-9.12h4.28v1.4h-3.12v2.36h2.6v1.4h-2.6l.07,3.96Zm10.78-4.56c0,.65-.07,1.29-.22,1.92-.13.53-.35,1.03-.64,1.49-.25.41-.59.75-1,1-.86.47-1.91.47-2.77,0-.41-.25-.75-.59-1-1-.3-.46-.51-.96-.64-1.49-.15-.63-.23-1.27-.22-1.92,0-.64.07-1.29.22-1.91.12-.53.34-1.04.64-1.5.25-.41.59-.75,1-1,.86-.47,1.91-.47,2.77,0,.41.25.75.59,1,1,.3.46.51.97.64,1.5.13.63.18,1.27.15,1.91h.07Zm-1.27,0c0-.49-.04-.97-.15-1.45-.08-.35-.22-.69-.42-1-.16-.26-.37-.47-.63-.63-.5-.27-1.11-.27-1.61,0-.26.16-.47.37-.63.63-.2.31-.34.65-.42,1-.11.48-.16.96-.15,1.45,0,.49.04.98.15,1.46.08.35.23.69.42,1,.16.26.37.47.63.63.5.27,1.11.27,1.61,0,.26-.16.47-.37.63-.63.19-.31.34-.65.42-1,.08-.48.11-.97.08-1.46h.07Zm7.95-1.82c.02.57-.12,1.13-.39,1.62-.28.46-.7.81-1.21,1h0l2,3.75h-1.47l-1.86-3.52h-.84v3.53h-1.23v-9.12h2c.32,0,.63.02.94.08.26.04.51.12.75.23.39.2.71.52.91.91.24.47.35.99.33,1.52h.07Zm-3.14,1.45c.24,0,.48-.01.72-.05.17-.02.34-.07.49-.15.23-.11.41-.29.52-.52.1-.24.14-.5.14-.76,0-.22-.03-.45-.11-.66-.08-.18-.22-.34-.39-.44-.13-.08-.28-.14-.44-.16-.22-.02-.44-.02-.66,0h-.87v2.79l.6-.05Zm12.11-1.45c.02.57-.12,1.13-.39,1.62-.28.46-.7.81-1.2,1h0l2,3.75h-1.48l-1.82-3.53h-.85v3.53h-1.23v-9.12h2.05c.32,0,.63.02.94.08.26.04.51.12.75.23.39.2.71.52.91.91.21.48.3,1.01.25,1.53h.07Zm-3.13,1.45c.24,0,.48-.01.72-.05.17-.02.34-.07.49-.15.23-.1.41-.29.51-.52.1-.24.15-.5.15-.76,0-.23-.04-.45-.12-.66-.07-.18-.21-.34-.38-.44-.14-.08-.28-.13-.44-.16-.22-.02-.44-.02-.66,0h-.88v2.79l.61-.05Zm6.25,3.54h3.3v1.39h-4.53v-9.12h4.35v1.4h-3.14v2.36h2.68v1.4h-2.68l.02,2.57Zm8.28-6.49c-.32,0-.64.07-.93.22-.29.16-.54.39-.72.66-.22.32-.38.68-.48,1.06-.12.47-.17.95-.17,1.44,0,.48.05.96.16,1.42.09.36.23.7.44,1,.18.26.43.47.71.62.31.14.66.21,1,.2.26,0,.52-.02.77-.08.26-.05.51-.13.75-.24v1.44c-.25.1-.5.17-.76.22-.28.05-.56.08-.84.08-.52.01-1.04-.1-1.51-.34-.43-.22-.8-.54-1.08-.93-.31-.44-.53-.93-.65-1.45-.15-.6-.23-1.23-.22-1.85,0-.65.07-1.31.23-1.94.14-.55.37-1.08.68-1.55.28-.42.66-.76,1.1-1,.46-.25.97-.38,1.49-.38.27,0,.54.02.81.08.24.04.47.12.69.22v1.42c-.45-.2-.94-.31-1.43-.31h-.04Zm9.39,3.32c0,.65-.07,1.29-.22,1.92-.13.53-.34,1.03-.64,1.49-.25.41-.59.75-1,1-.86.47-1.91.47-2.77,0-.41-.25-.75-.59-1-1-.29-.46-.51-.96-.64-1.49-.15-.63-.22-1.27-.22-1.92,0-.64.07-1.28.22-1.91.13-.53.34-1.04.64-1.5.25-.41.59-.75,1-1,.86-.47,1.91-.47,2.77,0,.41.25.75.59,1,1,.3.46.52.97.64,1.5.13.63.18,1.27.15,1.91h.07Zm-1.27,0c0-.49-.04-.97-.15-1.45-.08-.35-.22-.69-.42-1-.16-.26-.37-.47-.63-.63-.5-.27-1.11-.27-1.61,0-.26.16-.47.37-.63.63-.2.31-.34.65-.42,1-.11.48-.16.96-.15,1.45,0,.49.04.98.15,1.46.08.35.23.69.42,1,.16.26.37.47.63.63.5.27,1.11.27,1.61,0,.26-.16.47-.37.63-.63.19-.31.34-.65.42-1,.08-.48.11-.97.08-1.46h.07Zm6.48-.32c.48.93.87,1.76,1.17,2.48h0c0-1.18-.06-2.05-.06-2.59v-4.13h1.23v9.12h-1.29l-2.19-4.2c-.38-.72-.78-1.57-1.19-2.53h0c0,1.12.06,2,.06,2.6v4.13h-1.23v-9.12h1.29l2.21,4.24Zm7.68,2.27c0-.2-.03-.39-.12-.57-.09-.14-.2-.26-.34-.35-.15-.09-.32-.16-.49-.22l-.56-.17c-.26-.07-.51-.16-.75-.27-.24-.11-.45-.26-.63-.45-.19-.21-.34-.45-.43-.72-.12-.35-.17-.72-.16-1.09,0-.43.05-.85.18-1.26.11-.32.29-.62.51-.88.21-.23.46-.41.75-.53.32-.12.66-.18,1-.17.36,0,.73.05,1.08.14.33.08.64.21.94.37v1.43c-.32-.17-.65-.31-1-.4-.3-.09-.6-.13-.91-.13-.34-.02-.67.09-.93.3-.23.24-.35.57-.33.9,0,.2.03.39.11.57.07.15.17.28.29.38.13.1.28.17.43.23l.51.16c.28.09.56.18.82.29.26.1.49.25.69.44.21.21.37.47.47.75.13.38.19.78.18,1.18,0,.43-.06.86-.2,1.27-.12.33-.32.64-.57.89-.26.24-.56.42-.9.52-.37.12-.76.18-1.15.18-.37,0-.73-.05-1.08-.15-.32-.08-.61-.22-.88-.41v-1.42c.31.19.65.33,1,.43.33.09.66.14,1,.13.19,0,.38-.02.57-.06.18-.04.36-.11.51-.22.15-.11.28-.26.36-.43.04-.22.02-.45-.04-.66h.07Zm5.78,2.61h-1.23v-7.72h-2.17v-1.4h5.57v1.4h-2.17v7.72Zm8.49-6.38c.02.57-.12,1.13-.39,1.62-.28.46-.7.81-1.2,1h0l2,3.75h-1.48l-1.82-3.53h-.96v3.53h-1.23v-9.12h2.05c.32,0,.63.02.94.08.26.04.51.12.75.23.39.2.71.52.91.91.25.47.37,1,.36,1.53h.07Zm-3.13,1.45c.24,0,.48-.01.72-.05.17-.02.34-.07.49-.15.23-.1.41-.29.51-.52.1-.24.15-.5.15-.76,0-.23-.04-.45-.12-.66-.07-.18-.21-.34-.38-.44-.14-.08-.28-.13-.44-.16-.22-.02-.44-.02-.66,0h-.99v2.79l.72-.05Zm7.8,5.11c-.34,0-.68-.04-1-.14-.27-.09-.52-.23-.74-.41-.22-.18-.41-.4-.55-.64-.16-.27-.28-.55-.36-.85-.07-.28-.13-.56-.16-.85v-6.37h1.23v5.22c-.02.51.04,1.02.17,1.52.09.34.28.65.55.87.25.18.56.28.87.27.31,0,.61-.09.86-.27.28-.22.47-.53.56-.87.13-.5.18-1.01.17-1.52v-5.22h1.23v6.37c-.02.29-.08.57-.16.85-.08.3-.2.58-.36.85-.15.25-.34.46-.56.64-.22.18-.48.32-.75.41-.35.11-.71.15-1.07.14h.07Zm8.09-8.06c-.32,0-.64.07-.93.22-.29.16-.54.39-.72.66-.22.32-.38.68-.48,1.06-.12.47-.17.95-.17,1.44,0,.48.05.96.16,1.42.09.36.23.7.44,1,.18.26.43.47.71.62.31.14.66.21,1,.2.26,0,.52-.02.77-.08.26-.05.51-.13.75-.24v1.44c-.25.1-.5.17-.76.22-.28.05-.56.08-.84.08-.52.01-1.04-.1-1.51-.34-.43-.22-.8-.54-1.08-.93-.31-.44-.53-.93-.65-1.45-.15-.6-.23-1.23-.22-1.85,0-.65.07-1.31.23-1.94.14-.55.37-1.08.68-1.55.28-.42.66-.76,1.1-1,.46-.25.97-.38,1.49-.38.27,0,.54.02.81.08.24.04.47.12.69.22v1.42c-.45-.2-.94-.31-1.43-.31h-.04Zm5.89,7.88h-1.3v-7.72h-2.2v-1.4h5.57v1.4h-2.17l.1,7.72Zm3.52,0v-9.12h1.23v9.12h-1.23Zm9.48-4.56c0,.65-.07,1.29-.21,1.92-.13.53-.35,1.03-.64,1.49-.25.41-.59.75-1,1-.87.47-1.91.47-2.78,0-.41-.25-.75-.59-1-1-.29-.46-.51-.96-.63-1.49-.15-.63-.23-1.27-.22-1.92,0-.64.07-1.29.22-1.91.12-.53.33-1.04.63-1.5.25-.41.59-.75,1-1,.87-.47,1.91-.47,2.78,0,.41.25.75.59,1,1,.3.46.51.97.64,1.5.12.63.17,1.27.14,1.91h.07Zm-1.27,0c-.02-.5-.09-1-.23-1.49-.08-.35-.22-.69-.41-1-.16-.26-.38-.48-.64-.63-.5-.27-1.1-.27-1.6,0-.26.15-.48.37-.63.63-.2.31-.34.65-.42,1-.11.48-.16.96-.15,1.45,0,.49.04.98.15,1.46.08.35.23.69.42,1,.15.26.37.48.63.63.5.27,1.1.27,1.6,0,.26-.15.48-.37.64-.63.19-.31.33-.65.41-1,.11-.47.16-.94.16-1.42h.07Zm6.48-.32c.48.93.88,1.76,1.18,2.48h0c0-1.18-.06-2.05-.06-2.59v-4.13h1.17v9.12h-1.29l-2.19-4.2c-.39-.72-.79-1.57-1.2-2.53h0c0,1.12.06,2,.06,2.6v4.13h-1.23v-9.12h1.29l2.27,4.24Zm14,0c-.04.57-.14,1.14-.29,1.69-.13.46-.3.91-.53,1.34l.48.67c.15.22.28.41.4.57s.22.3.29.41l.14.19h-1.7l-.19-.31-.28-.41c-.29.28-.63.51-1,.67-.36.15-.74.23-1.13.23-.29,0-.58-.06-.85-.18-.25-.11-.47-.28-.65-.49-.19-.23-.33-.49-.42-.77-.1-.32-.15-.66-.15-1,0-.29.04-.57.11-.85.07-.24.16-.47.29-.68.12-.2.25-.39.41-.56.16-.16.32-.32.5-.46-.13-.17-.25-.33-.36-.5-.11-.17-.2-.35-.28-.53-.08-.18-.15-.37-.19-.57-.05-.22-.07-.44-.07-.66,0-.32.04-.63.14-.93.08-.26.22-.49.39-.7.17-.19.38-.34.62-.43.27-.1.55-.15.84-.15.29,0,.57.04.84.13.24.09.45.23.63.41.18.19.31.42.4.67.1.3.14.61.14.92,0,.28-.04.57-.11.84-.06.23-.16.46-.28.67-.12.2-.26.38-.42.55l-.49.46.56.78.67.94c.12-.29.21-.58.27-.88.08-.35.12-.71.14-1.07h1.13Zm-3.74,3.72c.24,0,.47-.05.69-.14.25-.1.48-.25.67-.44l-.39-.54-.38-.54-.38-.52-.34-.47c-.12.1-.23.2-.33.31-.1.11-.18.23-.26.35-.07.13-.13.26-.17.4-.04.15-.06.3-.06.45,0,.17.03.34.08.5.04.13.11.26.2.36.08.09.19.16.3.21.09.04.19.07.29.08h.08Zm-.54-6c-.02.13-.02.26,0,.39.04.12.08.24.14.35.07.12.15.24.23.35l.29.39c.12-.1.23-.21.33-.31.1-.1.19-.21.26-.33.07-.12.13-.25.18-.38.04-.14.06-.29.06-.44,0-.23-.06-.45-.2-.63-.23-.24-.59-.31-.9-.17-.09.05-.17.11-.24.18-.06.08-.11.17-.15.27-.05.12-.07.24-.08.37l.08-.04Zm7.95,7.12v-9.12h2.25c.16.01.32.03.48.06l.44.1c.14.03.27.08.4.14.37.14.71.35,1,.63.28.27.51.59.69.93.2.38.34.78.42,1.2.1.48.15.96.14,1.45,0,.46-.04.92-.12,1.38-.07.41-.19.8-.36,1.18-.16.34-.37.65-.62.93-.25.28-.56.5-.89.67-.32.15-.65.26-1,.33-.4.07-.81.11-1.22.1l-1.61.02Zm1.73-1.39c.59.03,1.18-.11,1.69-.41.37-.26.66-.62.81-1.05.21-.56.3-1.16.28-1.76,0-.34-.03-.67-.09-1-.05-.28-.14-.54-.26-.8-.11-.22-.25-.42-.42-.6-.16-.17-.34-.31-.55-.42-.2-.1-.41-.18-.63-.22-.26-.04-.53-.06-.79-.06h-.54v6.33h.5Zm7,0h3.31v1.39h-4.54v-9.12h4.35v1.4h-3.23v2.36h2.68v1.4h-2.68l.11,2.57Zm7.5-.84c.13-.49.22-.84.27-1.06s.17-.64.35-1.3l1.25-4.53h1.3l-2.63,9.12h-1.15l-2.63-9.12h1.31l1.25,4.53c.17.66.29,1.09.34,1.3s.15.57.27,1.06h.07Zm5.7.84h3.31v1.39h-4.62v-9.12h4.35v1.4h-3.12v2.36h2.68v1.4h-2.68l.08,2.57Zm6.24-7.73v7.73h3.15v1.39h-4.38v-9.12h1.23Zm10.45,4.6c0,.65-.07,1.29-.22,1.92-.13.53-.35,1.03-.64,1.49-.25.41-.59.75-1,1-.87.47-1.91.47-2.78,0-.41-.25-.75-.59-1-1-.3-.46-.51-.96-.64-1.49-.15-.63-.23-1.27-.22-1.92,0-.64.07-1.29.22-1.91.12-.53.34-1.04.64-1.5.25-.41.59-.75,1-1,.87-.47,1.91-.47,2.78,0,.41.25.75.59,1,1,.3.46.51.97.64,1.5.15.63.22,1.27.22,1.91Zm-1.27,0c0-.49-.04-.97-.15-1.45-.08-.35-.22-.69-.42-1-.16-.26-.37-.47-.63-.63-.25-.13-.53-.2-.81-.2-.28,0-.55.07-.8.2-.26.15-.48.37-.63.63-.2.31-.34.65-.42,1-.11.48-.16.96-.15,1.45,0,.49.04.98.15,1.46.08.35.23.69.42,1,.15.26.37.48.63.63.25.13.52.2.8.2.28,0,.56-.07.81-.2.26-.16.47-.37.63-.63.19-.31.34-.65.42-1,.11-.48.16-.97.15-1.46Zm4.83,1h-.63v3.56h-1.23v-9.12h1.94c.28,0,.57.02.85.06.22.03.44.09.65.17.44.18.81.5,1.06.91.27.49.39,1.04.37,1.6,0,.41-.06.81-.2,1.19-.13.34-.32.65-.58.9-.28.25-.6.44-.95.56-.41.14-.84.21-1.28.2v-.03Zm-.63-1.44c.09.01.18.01.27,0h.34c.28.01.56-.03.83-.11.2-.06.39-.16.55-.3.13-.13.23-.29.29-.47.06-.19.09-.4.09-.6,0-.24-.04-.48-.13-.7-.1-.2-.27-.36-.47-.46-.14-.06-.29-.1-.44-.12-.21-.01-.42-.01-.63,0h-.7v2.76Zm8.81,2.53c.14-.72.33-1.49.54-2.32l1.16-4.36h1.73v9.12h-1.23v-4.62c0-.68,0-1.46.06-2.36h0c-.05.26-.12.55-.2.87s-.15.64-.24,1l-1.39,5.15h-.79l-1.39-5.15c-.09-.32-.17-.63-.24-1s-.15-.61-.2-.87h0c0,.84.06,1.63.06,2.35v4.63h-1.23v-9.12h1.62l1.16,4.34c.19.73.37,1.5.54,2.34h.04Zm6.67,1h3.3v1.39h-4.53v-9.12h4.35v1.4h-3.12v2.36h2.68v1.4h-2.68v2.57Zm8.51-3.49c.48.93.87,1.76,1.17,2.48h0c0-1.18-.06-2.05-.06-2.59v-4.13h1.23v9.12h-1.26l-2.19-4.2c-.38-.72-.78-1.57-1.19-2.53h0c0,1.12.06,2,.06,2.6v4.13h-1.23v-9.12h1.29l2.18,4.24Zm7.13,4.88h-1.23v-7.72h-2.17v-1.4h5.56v1.4h-2.16v7.72Z"/>
    <path class="k" d="m5.1,36.01l-5.1,2.83v-4.38l5.09-2.84v4.39ZM.1,58.54v4l10.73,6.38v-6.14l-5.67-3.53v-20.06L.07,42.01l.03,16.53Zm39.54-17.74l-16.36-7.36v-2.35l14.4-14.43-5.29-3-16.07,16.49-.09,5.77,17.54,7.37v1.65l-.14,10.57-8.95,5-11-6.23V13.88l-6,3.31v41l16.38,9.33,15.56-8.6v-15.94l.02-2.18Zm8.29,4.09l-5.5-3.15v18.82l-5.07,2.79v7.35l10.57-6v-19.81Z"/>
    <path class="i" d="m33.25,69.14l-8.7,5-9.72-5.22v2.72l9.73,5.25,8.76-5.05-.07-2.7ZM2.25,29.96l.11-15.21L24,2.75l21.52,12.17v24.53l2.36,1.08V13.6L24,0,0,13.36v17.81l2.25-1.21Z"/>
  </g>
</svg>